<?xml version="1.0" standalone="no"?>
<!DOCTYPE svg PUBLIC "-//W3C//DTD SVG 20010904//EN"
 "http://www.w3.org/TR/2001/REC-SVG-20010904/DTD/svg10.dtd">
<svg version="1.0" xmlns="http://www.w3.org/2000/svg"
 width="500.000000pt" height="500.000000pt" viewBox="0 0 500.000000 500.000000"
 preserveAspectRatio="xMidYMid meet">

<g transform="translate(0.000000,500.000000) scale(0.100000,-0.100000)"
fill="#000000" stroke="none">
<path d="M0 2500 l0 -2500 2500 0 2500 0 0 2500 0 2500 -2500 0 -2500 0 0
-2500z m4880 0 l0 -2380 -2377 2 -2378 3 -3 2378 -2 2377 2380 0 2380 0 0
-2380z"/>
<path d="M260 2505 l0 -2235 2240 0 2240 0 0 2235 0 2235 -2240 0 -2240 0 0
-2235z m1028 1198 c-4 -439 -6 -516 -21 -566 -50 -171 -141 -265 -302 -313
-65 -20 -295 -26 -367 -11 l-38 8 0 186 0 186 44 -41 c55 -51 126 -69 212 -53
75 14 113 37 138 86 20 39 21 55 24 520 1 264 4 486 7 493 3 9 44 12 155 12
l151 0 -3 -507z m1030 365 l3 -138 -251 0 -250 0 0 -140 0 -140 240 0 240 0 0
-135 0 -135 -240 0 -240 0 0 -140 0 -140 248 -2 247 -3 3 -137 3 -138 -406 0
-405 0 0 688 c0 379 3 692 7 695 4 4 185 6 402 5 l396 -3 3 -137z m1042 2 l0
-140 -245 0 -245 0 0 -140 0 -140 235 0 235 0 0 -135 0 -135 -235 0 -235 0 0
-280 0 -280 -155 0 -155 0 0 695 0 695 400 0 400 0 0 -140z m1030 0 l0 -140
-250 0 -251 0 3 -137 3 -138 238 -3 237 -2 0 -135 0 -135 -237 -2 -238 -3 -3
-277 -2 -278 -150 0 -150 0 0 695 0 695 400 0 400 0 0 -140z m-3147 -1900
c363 -42 608 -320 608 -690 0 -201 -59 -348 -196 -486 -89 -90 -151 -129 -270
-170 -79 -28 -85 -28 -357 -32 l-278 -4 0 689 c0 379 3 693 7 696 10 11 388 8
486 -3z m1607 -130 l0 -140 -245 0 -245 0 0 -140 0 -140 235 0 235 0 0 -135 0
-135 -235 0 -235 0 0 -140 0 -140 245 0 245 0 0 -140 0 -140 -400 0 -400 0 0
695 0 695 400 0 400 0 0 -140z m475 106 c20 -48 309 -839 330 -905 12 -36 20
-49 25 -40 4 8 30 79 59 159 28 80 107 296 175 480 l123 335 162 3 c131 2 161
0 161 -11 0 -10 -461 -1160 -547 -1365 -4 -9 -41 -12 -137 -12 l-131 0 -274
678 c-151 372 -276 685 -279 695 -4 16 8 17 157 17 l162 0 14 -34z"/>
<path d="M1060 1481 l0 -411 60 0 c154 0 270 55 345 164 121 176 94 430 -61
566 -67 58 -135 83 -246 88 l-98 5 0 -412z"/>
</g>
</svg>
